<svg width="1600" height="300" viewBox="0 0 1600 300" xmlns="http://www.w3.org/2000/svg">
<defs>
  <linearGradient id="bg" x1="0" y1="0" x2="1" y2="1">
    <stop stop-color="#0b0710"/>
    <stop offset="0.5" stop-color="#1a0f26"/>
    <stop offset="1" stop-color="#0b0710"/>
  </linearGradient>
  <linearGradient id="wave" x1="0" y1="0" x2="1" y2="0">
    <stop stop-color="#9d6bff"/>
    <stop offset="0.5" stop-color="#ffb7c5"/>
    <stop offset="1" stop-color="#9d6bff"/>
  </linearGradient>
  <filter id="glow">
    <feGaussianBlur stdDeviation="7" result="b"/>
    <feMerge><feMergeNode in="b"/><feMergeNode in="SourceGraphic"/></feMerge>
  </filter>
</defs>

<rect width="1600" height="300" fill="url(#bg)"/>

<path d="M0 95 C190 185 340 5 535 105 S865 185 1055 95 S1380 5 1600 118 L1600 300 L0 300Z"
      fill="#1a0f26"/>

<path d="M0 92 C190 182 340 2 535 102 S865 182 1055 92 S1380 2 1600 115"
      fill="none" stroke="#9d6bff" stroke-width="2" opacity=".4"/>

<path d="M0 112 C185 202 345 22 540 122 S870 202 1060 112 S1390 22 1600 135"
      fill="none" stroke="#ffb7c5" stroke-width="3" opacity=".75" filter="url(#glow)"/>

<path d="M0 138 C190 228 350 48 550 148 S880 228 1070 138 S1400 48 1600 160"
      fill="none" stroke="url(#wave)" stroke-width="2" opacity=".9"/>

<path d="M0 165 C190 255 355 75 560 175 S890 255 1080 165 S1410 75 1600 188"
      fill="none" stroke="#9d6bff" stroke-width="5" opacity=".28"/>

<path d="M0 195 C200 285 370 105 570 205 S900 285 1090 195 S1420 105 1600 218"
      fill="none" stroke="#2d1547" stroke-width="22" opacity=".5"/>

<g fill="#fde7ee" opacity=".5">
  <circle cx="140" cy="145" r="1.4"/><circle cx="380" cy="95" r="1.2"/>
  <circle cx="650" cy="172" r="1.5"/><circle cx="930" cy="115" r="1.2"/>
  <circle cx="1210" cy="170" r="1.4"/><circle cx="1490" cy="125" r="1.5"/>
</g>
</svg>
